<?xml version="1.0" encoding="UTF-8" standalone="no"?>
<svg
   viewBox="0 0 348 348"
   fill="none"
   version="1.1"
   id="svg23"
   sodipodi:docname="Maze Runner.svg"
   inkscape:version="1.1.2 (b8e25be833, 2022-02-05)"
   xmlns:inkscape="http://www.inkscape.org/namespaces/inkscape"
   xmlns:sodipodi="http://sodipodi.sourceforge.net/DTD/sodipodi-0.dtd"
   xmlns="http://www.w3.org/2000/svg"
   xmlns:svg="http://www.w3.org/2000/svg">
  <defs
     id="defs27" />
  <sodipodi:namedview
     id="namedview25"
     pagecolor="#505050"
     bordercolor="#ffffff"
     borderopacity="1"
     inkscape:pageshadow="0"
     inkscape:pageopacity="0"
     inkscape:pagecheckerboard="1"
     showgrid="false"
     showguides="true"
     inkscape:guide-bbox="true"
     inkscape:snap-perpendicular="true"
     inkscape:snap-tangential="true"
     objecttolerance="20"
     inkscape:zoom="1.7230648"
     inkscape:cx="75.156779"
     inkscape:cy="122.45622"
     inkscape:window-width="1920"
     inkscape:window-height="1057"
     inkscape:window-x="-8"
     inkscape:window-y="-8"
     inkscape:window-maximized="1"
     inkscape:current-layer="svg23" />
  <path
     d="M 2.7575551,7.5170837 H 339.67056 V 345.18708 H 2.7585551 Z"
     stroke-width="2"
     stroke="#000000"
     id="path19" />
  <path
     d="M282.734 40.554c0-8.376 6.966-15.165 15.56-15.165 4.126 0 8.084 1.597 11.001 4.441 2.918 2.844 4.558 6.702 4.558 10.724 0 8.376-6.966 15.165-15.56 15.165-8.593 0-15.559-6.79-15.559-15.165z"
     stroke-width="2"
     stroke="#000"
     id="path21" />
  <rect
     style="fill:#1a1a1a;fill-rule:evenodd;stroke-width:0.694405"
     id="rect155"
     width="90.334885"
     height="90.334885"
     x="199.64427"
     y="-44.107452"
     transform="rotate(45)" />
  <path
     sodipodi:type="star"
     style="fill:none"
     id="path1354"
     inkscape:flatsided="false"
     sodipodi:sides="5"
     sodipodi:cx="34.471699"
     sodipodi:cy="90.693398"
     sodipodi:r1="68.747696"
     sodipodi:r2="34.373848"
     sodipodi:arg1="0.98941611"
     sodipodi:arg2="1.6177346"
     inkscape:rounded="0"
     inkscape:randomized="0"
     d="M 72.226415,148.14622 32.858842,125.02939 -8.5023359,144.35417 1.3178329,99.769884 -29.842432,66.404751 15.594339,61.966986 37.697415,22.02142 l 18.2613,41.841593 44.820715,8.677415 -34.150666,30.297292 z"
     inkscape:transform-center-x="-0.99680119"
     inkscape:transform-center-y="-5.6095762" />
  <path
     sodipodi:type="star"
     style="fill:#000000"
     id="path1576"
     inkscape:flatsided="false"
     sodipodi:sides="3"
     sodipodi:cx="221.54935"
     sodipodi:cy="81.580788"
     sodipodi:r1="56.800701"
     sodipodi:r2="28.400351"
     sodipodi:arg1="0.52359878"
     sodipodi:arg2="1.5707963"
     inkscape:rounded="0"
     inkscape:randomized="0"
     d="m 270.7402,109.98114 -49.19085,0 -49.19085,0 24.59542,-42.600527 24.59543,-42.600526 24.59542,42.600525 z"
     inkscape:transform-center-y="-14.200182"
     transform="rotate(120,196.60925,67.977605)"
     inkscape:transform-center-x="-4.9098396e-06" />
  <path
     sodipodi:type="star"
     style="fill:#000000"
     id="path1576-7"
     inkscape:flatsided="false"
     sodipodi:sides="3"
     sodipodi:cx="221.54935"
     sodipodi:cy="81.580788"
     sodipodi:r1="56.800701"
     sodipodi:r2="28.400351"
     sodipodi:arg1="0.52359878"
     sodipodi:arg2="1.5707963"
     inkscape:rounded="0"
     inkscape:randomized="0"
     inkscape:transform-center-y="14.200184"
     transform="rotate(-60,356.55256,215.91171)"
     inkscape:transform-center-x="8.4984408e-06"
     d="m 270.7402,109.98114 -49.19085,0 -49.19085,0 24.59542,-42.600527 24.59543,-42.600526 24.59542,42.600525 z" />
  <path
     sodipodi:type="star"
     style="fill:#000000"
     id="path1576-5"
     inkscape:flatsided="false"
     sodipodi:sides="3"
     sodipodi:cx="221.54935"
     sodipodi:cy="81.580788"
     sodipodi:r1="56.800701"
     sodipodi:r2="28.400351"
     sodipodi:arg1="0.52359878"
     sodipodi:arg2="1.5707963"
     inkscape:rounded="0"
     inkscape:randomized="0"
     inkscape:transform-center-y="6.5510378e-06"
     transform="rotate(-150,254.69013,121.91778)"
     inkscape:transform-center-x="-14.200192"
     d="m 270.7402,109.98114 -49.19085,0 -49.19085,0 24.59542,-42.600527 24.59543,-42.600526 24.59542,42.600525 z" />
  <path
     sodipodi:type="star"
     style="fill:#000000"
     id="path1576-7-8"
     inkscape:flatsided="false"
     sodipodi:sides="3"
     sodipodi:cx="221.54935"
     sodipodi:cy="81.580788"
     sodipodi:r1="56.800701"
     sodipodi:r2="28.400351"
     sodipodi:arg1="0.52359878"
     sodipodi:arg2="1.5707963"
     inkscape:rounded="0"
     inkscape:randomized="0"
     inkscape:transform-center-y="-1.0268362e-05"
     transform="rotate(30,-21.103059,-135.82996)"
     inkscape:transform-center-x="14.200184"
     d="m 270.7402,109.98114 -49.19085,0 -49.19085,0 24.59542,-42.600527 24.59543,-42.600526 24.59542,42.600525 z" />
  <path
     style="fill:#000000"
     id="path1744"
     d="m 42.458112,7.5471354 c -0.385866,4.1567276 -1.270693,8.2713146 -2.120358,12.3562416 -1.391816,6.352279 -2.557882,12.752204 -3.91474,19.11217 -1.120584,4.768698 -1.947003,9.599114 -2.991586,14.383677 -0.8006,3.936438 -1.621741,7.869449 -2.37515,11.815305 -0.518079,2.589319 -1.084723,5.167229 -1.632753,7.750508 -0.556186,2.581172 -1.142211,5.157916 -1.886911,7.692001 -0.72491,2.643744 -1.553559,5.259437 -2.422266,7.859671 -1.148356,3.563456 -2.700558,6.973371 -3.993104,10.482582 -0.905135,2.115649 -1.729495,4.254499 -2.66181,6.357819 -1.068946,2.4567 -2.630117,4.62313 -4.2914,6.70614 -1.177328,1.4618 -2.598726,2.69661 -3.900793,4.03882 -0.9700289,0.72356 -1.8148607,1.62386 -2.8013787,2.32587 -0.035663,0.0254 -1.6924855,1.04799 -1.7307054,1.0716 12.7739681,-7.00789 5.7933961,-3.19802 2.4883305,-2.06044 0,0 -6.7983928,5.24933 -6.7983928,5.24933 v 0 c 4.4728637,-1.15637 8.3694474,-4.07483 12.2889484,-6.29003 1.607536,-1.04732 3.102586,-2.25809 4.49088,-3.58265 1.339381,-1.29054 2.638233,-2.63167 3.777353,-4.1051 1.633964,-2.16834 3.158253,-4.42187 4.258805,-6.91559 0.936767,-2.086952 1.668361,-4.25355 2.538223,-6.368766 1.247726,-3.518681 2.751319,-6.941301 3.949995,-10.478597 0.915898,-2.618365 1.796759,-5.254247 2.487238,-7.942321 0.688582,-2.565542 1.321506,-5.144104 1.864563,-7.744635 0.535098,-2.579194 1.129613,-5.146245 1.565643,-7.745106 0.661713,-3.925552 1.442995,-7.830547 2.258585,-11.726671 1.014817,-4.762513 1.818796,-9.568603 2.854424,-14.327525 1.240566,-6.372336 2.461274,-12.748623 3.880891,-19.084406 0.94977,-4.197634 1.837545,-8.4124904 2.620199,-12.6446119 0,0 -7.80273,3.8147143 -7.80273,3.8147143 z" />
  <path
     style="fill:#000000"
     id="path1746"
     d="m 53.005528,10.513383 c -0.546806,6.908758 -2.889331,13.561355 -4.991968,20.117795 -3.776523,12.128416 -6.471245,24.553184 -8.512002,37.080712 -1.261835,7.578917 -1.58989,15.242691 -1.977267,22.898474 -0.155162,6.4093 -1.420949,12.556836 -3.155195,18.697196 -1.537322,5.34633 -3.925918,10.36491 -6.419413,15.31542 -1.635645,3.43009 -3.737953,6.56793 -6.163345,9.48051 -2.981378,2.91009 -6.16151,5.63379 -9.417486,8.23398 0,0 7.800069,-3.1392 7.800069,-3.1392 v 0 c 3.210388,-2.68072 6.451065,-5.36382 9.345791,-8.38639 2.378917,-2.95559 4.386684,-6.16539 5.986658,-9.61191 2.38945,-4.99172 4.714817,-10.02715 6.199686,-15.37909 0.668029,-2.39807 1.041432,-3.59488 1.560204,-6.024468 0.897582,-4.203687 1.194397,-8.488426 1.405651,-12.772972 0.502523,-7.577978 0.631023,-15.190319 1.767685,-22.715699 1.696128,-12.536352 4.294514,-24.949695 8.470559,-36.9159 2.308367,-6.819599 4.768476,-13.67392 5.840117,-20.8220549 0,0 -7.739744,3.9435969 -7.739744,3.9435969 z" />
  <path
     style="fill:#000000"
     id="path1748"
     d="m 34.456696,9.9528115 c -0.769682,1.4018445 -1.309341,2.3034195 -1.917718,3.8971495 -0.888317,2.327075 -2.452782,7.582692 -3.047005,9.687731 -1.627176,5.764278 -2.180904,8.249273 -3.634946,14.169429 -3.232675,12.941318 -5.828873,26.019779 -8.478921,39.087692 -1.2048,7.323238 -2.948097,14.521834 -5.026047,21.640615 -1.113307,4.209562 -2.71711,8.230082 -4.8889625,11.998692 -1.3903907,2.05606 -2.7368326,4.14661 -4.2426162,6.12096 -0.2285073,0.24227 -0.4570146,0.48454 -0.6855219,0.72682 0,0 7.8889526,-3.32523 7.8889526,-3.32523 v 0 c 0.219051,-0.2646 0.438102,-0.5292 0.657152,-0.7938 1.44067,-1.99585 2.77751,-4.06714 4.063931,-6.16511 2.030514,-3.81379 3.545547,-7.847029 4.555548,-12.054116 1.954846,-7.091594 3.576545,-14.261786 4.65828,-21.542845 2.279449,-13.003658 4.553586,-26.014615 7.957532,-38.785195 1.606738,-6.137892 2.09323,-8.347742 3.994624,-14.288667 1.525481,-4.766378 3.128968,-9.66573 6.028834,-13.8019326 0,0 -7.883116,3.4278071 -7.883116,3.4278071 z" />
  <path
     style="fill:#000000"
     id="path1750"
     d="m 8.1450449,136.55287 c 1.1039574,-0.3542 1.2998682,-0.35561 2.3986191,-1.02963 2.926484,-1.79524 5.914277,-3.50335 8.716854,-5.48647 0.692666,-0.49013 1.156767,-1.24254 1.706353,-1.88905 2.004943,-2.35853 2.169476,-2.71781 4.032252,-5.33916 4.628306,-6.52734 8.052334,-13.82969 10.713015,-21.35808 0.610698,-1.727967 1.131001,-3.486565 1.696501,-5.229848 2.923435,-9.693151 5.161111,-19.574713 7.693558,-29.373422 1.983504,-8.06251 4.280373,-16.030667 7.026298,-23.865347 1.906272,-5.384835 3.7606,-10.792629 6.103879,-16.007922 1.115974,-2.483755 1.832868,-3.853553 3.031402,-6.242042 1.644987,-3.389329 3.526981,-6.650671 5.501169,-9.856 0.999845,-1.7101706 0.480204,-0.85798 1.560427,-2.5556535 0,0 -7.734967,3.4080405 -7.734967,3.4080405 v 0 c -1.078906,1.728784 -0.552843,0.867923 -1.579133,2.582005 -1.871582,3.169924 -3.637577,6.394602 -5.123571,9.767786 -3.419783,7.231865 -6.342233,14.658141 -8.893401,22.242034 -0.949772,2.732482 -1.891731,5.371499 -2.75291,8.134126 -1.618548,5.192238 -2.824061,10.50309 -4.186164,15.765021 -2.44843,9.764446 -4.592609,19.614242 -7.544874,29.245179 -0.574187,1.732243 -1.100925,3.480943 -1.722562,5.196733 -2.744296,7.57458 -6.367796,14.83014 -11.149338,21.33056 -1.81746,2.42386 -2.265662,3.16153 -4.27063,5.32374 -0.592497,0.63896 -2.692627,2.08819 -1.857478,1.83949 2.026862,-0.60358 3.717087,-2.02042 5.61282,-2.95779 0.709228,-0.35069 -2.234718,1.50141 -2.103743,1.09916 0,0 -6.8743761,5.25654 -6.8743761,5.25654 z" />
</svg>
